<?xml version="1.0" encoding="utf-8"?>
<!-- Generator: Adobe Illustrator 21.0.0, SVG Export Plug-In . SVG Version: 6.00 Build 0)  -->
<svg version="1.1" id="Layer_1" xmlns="http://www.w3.org/2000/svg" xmlns:xlink="http://www.w3.org/1999/xlink" x="0px" y="0px"
	 viewBox="0 0 466 155" style="enable-background:new 0 0 466 155;" xml:space="preserve">
<style type="text/css">
	.st0{fill:#48A4D7;}
	.st1{fill:#89EBEB;}
	.st2{fill:#00CACC;}
	.st3{fill:#4A5556;}
</style>
<g>
	<polygon class="st0" points="141.5,102.9 135.5,92.3 133.4,88.8 133.4,88.7 115.7,57.7 109.5,68.3 121.2,88.7 121.2,88.8 
		123.3,92.3 129.3,102.9 131.4,106.5 131.6,106.5 131.6,106.5 97.6,106.5 73.6,106.5 67.4,117.1 97.6,117.1 149.6,117.1 
		141.5,102.9 	"/>
	<polygon class="st1" points="89.4,102.9 99.4,102.9 125.2,102.9 119.1,92.3 99.4,92.3 95.6,92.3 91.4,92.3 79.2,92.3 75,92.3 
		76.5,89.7 77.1,88.8 77.1,88.8 99.4,49.7 105.1,39.6 99.4,29.7 99,29 64.9,88.8 56.8,103 68.9,102.9 	"/>
	<polygon class="st2" points="99.3,57.6 81.2,88.8 93.5,88.8 93.5,88.7 99.4,78.6 105.4,68.2 107.5,64.7 113.6,54.1 115.7,50.5 
		115.8,50.3 138.2,88.8 146.3,102.8 158.5,102.8 150.4,88.8 115.8,29.1 109.6,39.8 99.4,57.5 	"/>
</g>
<g>
	<path class="st3" d="M211.2,33.5c0.4,0.4,0.6,0.9,0.6,1.5v24.9v33.6c0,3.6-0.7,6.8-2.2,9.8c-1.5,2.9-3.6,5.3-6.2,7
		c-2.7,1.7-5.7,2.6-9.2,2.6h-3c-3.4,0-6.5-0.9-9.1-2.6c-2.7-1.7-4.7-4-6.2-7c-1.5-2.9-2.2-6.2-2.2-9.8V53.9V35
		c0-0.6,0.2-1.1,0.6-1.5c0.4-0.4,0.9-0.6,1.5-0.6h7.6c0.6,0,1.1,0.2,1.5,0.6c0.4,0.4,0.6,0.9,0.6,1.5v24.9v32c0,2.6,0.6,4.7,1.8,6.4
		c1.2,1.7,3,2.5,5.3,2.5c2.4,0,4.1-0.8,5.3-2.5c1.2-1.7,1.8-3.8,1.8-6.4v-38V35c0-0.6,0.2-1.1,0.6-1.5c0.4-0.4,0.9-0.6,1.5-0.6h7.8
		C210.3,32.9,210.8,33.1,211.2,33.5z"/>
	<path class="st3" d="M258.8,110.9c0,0.5-0.2,1-0.5,1.4c-0.3,0.4-0.8,0.6-1.3,0.6h-7.8c-0.6,0-1.1-0.2-1.6-0.6
		c-0.5-0.4-0.8-0.9-0.9-1.5l-1.6-10.3h-16.2l-1.6,10.3c-0.1,0.6-0.3,1.1-0.8,1.5c-0.5,0.4-1,0.6-1.6,0.6h-7.8
		c-0.6,0-1.1-0.2-1.4-0.6c-0.3-0.4-0.5-0.9-0.4-1.5l12-75.6c0.1-0.6,0.4-1.1,0.9-1.5c0.5-0.4,1-0.6,1.7-0.6h4.5h5.5h4.5
		c0.6,0,1.2,0.2,1.7,0.6c0.5,0.4,0.8,0.9,0.9,1.5l12.1,75.6V110.9z M243.1,88.2L237,50l-6.2,38.2H243.1z"/>
	<path class="st3" d="M292,35.4c2.7,1.7,4.7,4,6.2,7c1.5,2.9,2.2,6.2,2.2,9.8v1.6v0.6v0.5c0,0.5-0.2,1-0.6,1.5
		c-0.4,0.5-0.9,0.7-1.5,0.7h-7.8c-0.5,0-1-0.2-1.5-0.7c-0.5-0.5-0.7-1-0.7-1.5v-0.5v-0.6c0-2.6-0.6-4.7-1.8-6.4
		c-1.2-1.7-3-2.5-5.3-2.5c-2.3,0-4,0.8-5.3,2.5c-1.2,1.7-1.8,3.8-1.8,6.4v3v0.3v0.2c0,2.9,0.6,5.1,1.7,6.5c0.9,1.1,2,2,3.1,2.7
		c1.2,0.7,2.7,1.5,4.5,2.2c3.2,1.4,5.9,3,8.2,4.6c2.2,1.6,4.4,4,6.3,7.3c0.8,1.2,1.4,2.9,1.8,5c0.4,2.1,0.6,3.7,0.6,4.8v0.1v0.3v2.6
		c0,3.6-0.7,6.8-2.2,9.8c-1.5,2.9-3.6,5.3-6.2,7c-2.7,1.7-5.7,2.6-9.2,2.6h-3c-3.4,0-6.5-0.9-9.1-2.6c-2.7-1.7-4.7-4-6.2-7
		c-1.5-2.9-2.2-6.2-2.2-9.8v-1.1v-1c0-0.6,0.2-1.1,0.6-1.5c0.4-0.4,0.9-0.6,1.5-0.6h7.6c0.6,0,1.1,0.2,1.5,0.6
		c0.4,0.4,0.6,0.9,0.6,1.5v0.6c0,2.6,0.6,4.7,1.8,6.4c1.2,1.7,3,2.5,5.3,2.5c2.4,0,4.1-0.8,5.3-2.5c1.2-1.7,1.8-3.8,1.8-6.4v-1v-0.3
		v-0.1c0-1.1-0.2-2.4-0.5-3.9c-0.3-1.5-1-2.8-1.9-3.9c-0.9-1.1-2-2.1-3.3-2.8c-1.3-0.7-3-1.5-5-2.2c-3.5-1.3-6.4-2.7-8.6-4.3
		c-2.2-1.6-4.1-4.1-5.5-7.6c-0.5-1.1-0.8-2.5-1-4.2c-0.2-1.6-0.3-3-0.3-4.2v-0.2v-0.3v-4.6c0-3.6,0.7-6.8,2.2-9.8
		c1.5-2.9,3.6-5.3,6.2-7c2.7-1.7,5.7-2.6,9.1-2.6h3C286.2,32.9,289.3,33.7,292,35.4z"/>
	<path class="st3" d="M347.4,110.9c0,0.5-0.2,1-0.5,1.4c-0.3,0.4-0.8,0.6-1.3,0.6h-7.8c-0.6,0-1.1-0.2-1.6-0.6
		c-0.5-0.4-0.8-0.9-0.9-1.5l-1.6-10.3h-16.2l-1.6,10.3c-0.1,0.6-0.3,1.1-0.8,1.5c-0.5,0.4-1,0.6-1.6,0.6h-7.8
		c-0.6,0-1.1-0.2-1.4-0.6c-0.3-0.4-0.5-0.9-0.4-1.5l12-75.6c0.1-0.6,0.4-1.1,0.9-1.5c0.5-0.4,1-0.6,1.7-0.6h4.5h5.5h4.5
		c0.6,0,1.2,0.2,1.7,0.6c0.5,0.4,0.8,0.9,0.9,1.5l12.1,75.6V110.9z M331.7,88.2L325.5,50l-6.2,38.2H331.7z"/>
	<path class="st3" d="M388.8,63.2c-1.7,2.3-4,4-6.8,5.3c3,1.2,5.3,3,6.9,5.3c1.6,2.3,2.5,5.1,2.5,8.6v15.1c0,5.2-1.4,9-4.3,11.6
		c-2.9,2.6-7,3.8-12.4,3.8H365h-6.8h-3.1c-0.6,0-1.1-0.2-1.5-0.6c-0.4-0.4-0.6-0.9-0.6-1.5V35c0-0.6,0.2-1.1,0.6-1.5
		c0.4-0.4,0.9-0.6,1.5-0.6h3.1h6.8h9.5c5.4,0,9.5,1.3,12.4,3.8c2.9,2.6,4.3,6.4,4.3,11.6v6.5C391.3,58.1,390.5,61,388.8,63.2z
		 M365,44.9v17.7h5.4c2.4,0,4.5-0.6,6.1-1.7c1.6-1.1,2.5-2.7,2.7-4.9v-6.8c-0.2-2-0.9-3.2-2.2-3.7c-1.3-0.5-3.5-0.7-6.6-0.7H365z
		 M379.2,80.9c-0.2-2.1-1-3.6-2.7-4.7c-1.6-1.1-3.7-1.7-6.1-1.7H365v26.3h5.4c3,0,5.2-0.2,6.6-0.7c1.3-0.5,2.1-1.7,2.2-3.7V80.9z"/>
	<path class="st3" d="M399.2,32.9h7.8c0.6,0,1.1,0.2,1.5,0.6c0.4,0.4,0.6,0.9,0.6,1.5v75.6c0,0.6-0.2,1.1-0.6,1.5
		c-0.4,0.4-0.9,0.6-1.5,0.6h-7.8c-0.6,0-1.1-0.2-1.5-0.6c-0.4-0.4-0.6-0.9-0.6-1.5V35c0-0.6,0.2-1.1,0.6-1.5
		C398.1,33.1,398.6,32.9,399.2,32.9z"/>
</g>
</svg>
